#!OML:ASF X:\für Bonn\!DataBase\2005_08_12_Daniel\c3d\Daniel.ASF
:FULLY-SPECIFIED
:DEGREES
243
root -0.864861 17.139 -7.77508 173.752 -9.38576 -177.452
lowerback 30.1987 -2.7764 2.24998
upperback 9.10946 -5.38173 -2.09387
thorax -6.62769 -3.50592 -1.64434
lowerneck 0.951085 -0.419559 -5.56595
upperneck 14.0475 0.30135 1.72788
head 4.48999 0.28417 1.60983
rclavicle -2.0276e-014 2.38542e-015
rhumerus -33.2397 4.5732 -93.9646
rradius 23.0297
rwrist 10.2403
rhand -17.0176 14.4719
rfingers 7.12502
rthumb 9.21837 -15.3066
lclavicle -2.0276e-014 2.38542e-015
lhumerus -19.8797 22.6665 79.651
lradius 18.7444
lwrist -36.3107
lhand -11.8734 -8.51978
lfingers 7.12502
lthumb 14.179 20.9763
rfemur -29.7219 -5.05121 22.2207
rtibia 42.2472
rfoot -7.42696 -0.255792
rtoes -10.4923
lfemur 3.2054 -3.20128 -21.8287
ltibia 37.5876
lfoot -34.2855 0.0860687
ltoes -4.73783
244
root -0.872288 17.1642 -7.88952 173.946 -9.34657 -177.605
lowerback 29.5578 -2.89461 1.93469
upperback 8.92705 -5.54746 -2.09543
thorax -6.52273 -3.5533 -1.44111
lowerneck 0.860857 -0.278137 -5.58564
upperneck 14.2229 0.527812 1.63816
head 4.56283 0.394775 1.59423
rclavicle 1.74931e-014 -1.35174e-014
rhumerus -33.6275 4.55091 -94.0244
rradius 22.8941
rwrist 10.1448
rhand -16.8127 14.4443
rfingers 7.12502
rthumb 9.41604 -15.3254
lclavicle 1.74931e-014 -1.35174e-014
lhumerus -20.2876 26.3536 78.2506
lradius 17.621
lwrist -39.8306
lhand -11.9496 -8.45183
lfingers 7.12502
lthumb 14.1056 21.0494
rfemur -29.185 -4.23512 21.9972
rtibia 39.7657
rfoot -8.1396 -1.46236
rtoes -9.71868
lfemur 4.21323 -3.46818 -22.0986
ltibia 36.2269
lfoot -34.1054 0.464231
ltoes -4.88029
245
root -0.880934 17.1876 -8.00445 174.154 -9.30953 -177.756
lowerback 28.9141 -3.01648 1.66612
upperback 8.7341 -5.70092 -2.10843
thorax -6.42686 -3.59414 -1.28415
lowerneck 0.805753 -0.151117 -5.57497
upperneck 14.3927 0.736054 1.53252
head 4.62762 0.49783 1.56688
rclavicle -3.33958e-014 1.59028e-015
rhumerus -34.0327 4.46174 -94.0754
rradius 22.7842
rwrist 10.0841
rhand -16.6562 14.3652
rfingers 7.12502
rthumb 9.56708 -15.3976
lclavicle -3.33958e-014 1.59028e-015
lhumerus -20.8672 30.3792 76.6247
lradius 16.5437
lwrist -43.6584
lhand -12.0226 -8.3617
lfingers 7.12502
lthumb 14.0353 21.1444
rfemur -28.6588 -3.31498 21.722
rtibia 37.3166
rfoot -8.80991 -2.81958
rtoes -9.26709
lfemur 5.22608 -3.70087 -22.3578
ltibia 34.8222
lfoot -33.903 0.820899
ltoes -4.99151
246
root -0.888695 17.2099 -8.12141 174.344 -9.26723 -177.891
lowerback 28.2817 -3.13666 1.42078
upperback 8.55179 -5.84761 -2.11132
thorax -6.3197 -3.63402 -1.1341
lowerneck 0.825359 -0.0230612 -5.62311
upperneck 14.5008 0.933711 1.4817
head 4.6561 0.594952 1.56684
rclavicle 1.78906e-014 2.8625e-014
rhumerus -34.3914 4.27106 -94.0606
rradius 22.6657
rwrist 10.069
rhand -16.4101 14.3193
rfingers 7.12502
rthumb 9.80455 -15.4325
lclavicle 1.78906e-014 2.8625e-014
lhumerus -21.6252 34.1859 74.8786
lradius 15.6111
lwrist -47.2552
lhand -12.0878 -8.18143
lfingers 7.12502
lthumb 13.9724 21.329
rfemur -28.1331 -2.28385 21.4134
rtibia 34.9541
rfoot -9.52428 -4.36416
rtoes -9.19166
lfemur 6.29751 -3.95266 -22.604
ltibia 33.3578
lfoot -33.6641 1.15082
ltoes -5.04837
247
root -0.897724 17.2312 -8.23881 174.523 -9.22757 -178.024
lowerback 27.6656 -3.26313 1.19803
upperback 8.38269 -5.99896 -2.10304
thorax -6.20171 -3.67875 -0.985337
lowerneck 0.988024 0.120343 -5.72456
upperneck 14.4944 1.13609 1.46172
head 4.61377 0.693471 1.58323
rclavicle 1.63003e-014 -2.94201e-014
rhumerus -34.6788 4.01355 -93.9777
rradius 22.475
rwrist 10.1678
rhand -16.2479 14.3285
rfingers 7.12502
rthumb 9.96096 -15.4158
lclavicle 1.63003e-014 -2.94201e-014
lhumerus -22.6424 38.3724 72.8485
lradius 14.7599
lwrist -51.2382
lhand -12.1833 -8.00397
lfingers 7.12502
lthumb 13.8803 21.5128
rfemur -27.6309 -1.17886 21.0582
rtibia 32.6918
rfoot -10.2255 -5.9903
rtoes -9.41133
lfemur 7.39513 -4.20873 -22.8651
ltibia 31.8574
lfoot -33.4187 1.52856
ltoes -5.27345
248
root -0.90519 17.25 -8.35711 174.701 -9.1858 -178.157
lowerback 27.0569 -3.38491 0.992275
upperback 8.21179 -6.13989 -2.10372
thorax -6.08712 -3.7191 -0.861408
lowerneck 1.18189 0.25492 -5.78348
upperneck 14.4729 1.32783 1.404
head 4.56002 0.787929 1.57753
rclavicle 1.15295e-014 -3.10104e-014
rhumerus -34.951 3.54892 -93.8286
rradius 22.2891
rwrist 10.3662
rhand -16.0479 14.3339
rfingers 7.12502
rthumb 10.1539 -15.4011
lclavicle 1.15295e-014 -3.10104e-014
lhumerus -23.9326 42.4259 70.5807
lradius 14.017
lwrist -55.1498
lhand -12.1873 -7.72669
lfingers 7.12502
lthumb 13.8765 21.7904
rfemur -27.1652 0.0329057 20.6619
rtibia 30.5697
rfoot -11.0016 -7.68678
rtoes -9.71447
lfemur 8.52059 -4.47988 -23.1239
ltibia 30.3299
lfoot -33.1409 1.88013
ltoes -5.32026
249
root -0.912328 17.2655 -8.47681 174.896 -9.15199 -178.255
lowerback 26.4233 -3.50668 0.839914
upperback 8.0555 -6.26714 -2.09043
thorax -5.94301 -3.75457 -0.76199
lowerneck 1.28994 0.371358 -5.84255
upperneck 14.4702 1.49575 1.35211
head 4.5312 0.869118 1.57426
rclavicle 1.94809e-014 -2.38542e-015
rhumerus -35.1399 2.99935 -93.6139
rradius 22.0588
rwrist 10.6784
rhand -15.8617 14.3524
rfingers 7.12502
rthumb 10.3335 -15.3738
lclavicle 1.94809e-014 -2.38542e-015
lhumerus -25.6102 46.719 67.8889
lradius 13.3499
lwrist -59.2661
lhand -12.2059 -7.52346
lfingers 7.12502
lthumb 13.8586 21.9948
rfemur -26.7567 1.30309 20.2539
rtibia 28.5732
rfoot -11.8106 -9.30124
rtoes -9.45925
lfemur 9.62747 -4.78968 -23.3534
ltibia 28.79
lfoot -32.8389 2.23118
ltoes -5.30476
